<svg width="120" height="120" viewBox="0 0 120 120" fill="none" xmlns="http://www.w3.org/2000/svg">
  <!-- Balão de conversa principal -->
  <path d="M24 36C24 26.0589 32.0589 18 42 18H78C87.9411 18 96 26.0589 96 36V60C96 69.9411 87.9411 78 78 78H60L48 90V78H42C32.0589 78 24 69.9411 24 60V36Z" fill="url(#gradient1)" stroke="url(#gradient2)" stroke-width="4"/>
  
  <!-- Avião de papel dentro do balão -->
  <path d="M45 48L75 36L60 60L45 48Z" fill="white" opacity="0.9"/>
  <path d="M60 60L75 36L84 42L60 60Z" fill="white" opacity="0.7"/>
  
  <!-- Pontos de exclamação para dinamismo -->
  <circle cx="36" cy="42" r="4.5" fill="white" opacity="0.8"/>
  <circle cx="84" cy="54" r="3" fill="white" opacity="0.6"/>
  
  <!-- Elementos decorativos -->
  <circle cx="30" cy="30" r="2" fill="white" opacity="0.4"/>
  <circle cx="90" cy="30" r="1.5" fill="white" opacity="0.3"/>
  <circle cx="30" cy="90" r="1" fill="white" opacity="0.2"/>
  
  <!-- Gradientes -->
  <defs>
    <linearGradient id="gradient1" x1="0%" y1="0%" x2="100%" y2="100%">
      <stop offset="0%" style="stop-color:#FF6B35;stop-opacity:1" />
      <stop offset="30%" style="stop-color:#FF8E53;stop-opacity:1" />
      <stop offset="70%" style="stop-color:#FFB366;stop-opacity:1" />
      <stop offset="100%" style="stop-color:#FFD700;stop-opacity:1" />
    </linearGradient>
    <linearGradient id="gradient2" x1="0%" y1="0%" x2="100%" y2="100%">
      <stop offset="0%" style="stop-color:#E55A2B;stop-opacity:1" />
      <stop offset="50%" style="stop-color:#CC4A1F;stop-opacity:1" />
      <stop offset="100%" style="stop-color:#B83A13;stop-opacity:1" />
    </linearGradient>
  </defs>
</svg>
